<svg width="115" height="20" viewBox="0 0 115 20" fill="none" xmlns="http://www.w3.org/2000/svg">
<path d="M0.434659 15V0.454545H3.0696V6.61222H9.80966V0.454545H12.4517V15H9.80966V8.82102H3.0696V15H0.434659ZM18.343 15.2202C17.6518 15.2202 17.0291 15.0971 16.4751 14.8509C15.9259 14.5999 15.4903 14.2306 15.1683 13.7429C14.8511 13.2552 14.6925 12.6539 14.6925 11.9389C14.6925 11.3234 14.8061 10.8144 15.0334 10.4119C15.2607 10.0095 15.5708 9.6875 15.9638 9.44602C16.3568 9.20455 16.7995 9.02225 17.2919 8.89915C17.7891 8.77131 18.3028 8.67898 18.8331 8.62216C19.4723 8.55587 19.9908 8.49669 20.3885 8.4446C20.7862 8.38778 21.075 8.30256 21.255 8.18892C21.4396 8.07055 21.532 7.88826 21.532 7.64205V7.59943C21.532 7.06439 21.3733 6.65009 21.0561 6.35653C20.7389 6.06297 20.282 5.91619 19.6854 5.91619C19.0556 5.91619 18.5561 6.0535 18.1868 6.32812C17.8222 6.60275 17.576 6.92708 17.4482 7.30114L15.0476 6.96023C15.237 6.29735 15.5495 5.74337 15.9851 5.2983C16.4207 4.84848 16.9534 4.51231 17.5831 4.28977C18.2128 4.0625 18.9089 3.94886 19.6712 3.94886C20.1967 3.94886 20.7199 4.01042 21.2408 4.13352C21.7616 4.25663 22.2375 4.46023 22.6683 4.74432C23.0992 5.02367 23.4448 5.40483 23.7053 5.88778C23.9704 6.37074 24.103 6.97443 24.103 7.69886V15H21.6314V13.5014H21.5462C21.3899 13.8045 21.1697 14.0885 20.8857 14.3537C20.6063 14.6141 20.2536 14.8248 19.8274 14.9858C19.406 15.142 18.9112 15.2202 18.343 15.2202ZM19.0107 13.331C19.5268 13.331 19.9742 13.2292 20.353 13.0256C20.7318 12.8172 21.023 12.5426 21.2266 12.2017C21.4349 11.8608 21.5391 11.4891 21.5391 11.0866V9.80114C21.4586 9.86742 21.3213 9.92898 21.1271 9.9858C20.9377 10.0426 20.7247 10.0923 20.4879 10.1349C20.2512 10.1776 20.0168 10.2154 19.7848 10.2486C19.5528 10.2817 19.3516 10.3101 19.1811 10.3338C18.7976 10.3859 18.4543 10.4711 18.1513 10.5895C17.8482 10.7079 17.6091 10.8736 17.4339 11.0866C17.2588 11.295 17.1712 11.5649 17.1712 11.8963C17.1712 12.3698 17.344 12.7273 17.6896 12.9688C18.0353 13.2102 18.4756 13.331 19.0107 13.331ZM26.6882 15V4.09091H29.1811V5.90909H29.2947C29.4936 5.27936 29.8345 4.79403 30.3175 4.45312C30.8052 4.10748 31.3615 3.93466 31.9865 3.93466C32.1286 3.93466 32.2872 3.94176 32.4624 3.95597C32.6423 3.96544 32.7914 3.98201 32.9098 4.00568V6.37074C32.8009 6.33286 32.6281 6.29972 32.3913 6.27131C32.1593 6.23816 31.9344 6.22159 31.7166 6.22159C31.2479 6.22159 30.8265 6.32339 30.4524 6.52699C30.0831 6.72585 29.7919 7.00284 29.5788 7.35795C29.3658 7.71307 29.2592 8.12263 29.2592 8.58665V15H26.6882ZM34.6179 15V4.09091H37.0753V5.9446H37.2031C37.4304 5.3196 37.8068 4.83191 38.3324 4.48153C38.858 4.12642 39.4853 3.94886 40.2145 3.94886C40.9531 3.94886 41.5758 4.12879 42.0824 4.48864C42.5938 4.84375 42.9536 5.32907 43.1619 5.9446H43.2756C43.517 5.33854 43.9242 4.85559 44.4972 4.49574C45.0748 4.13116 45.759 3.94886 46.5497 3.94886C47.5535 3.94886 48.3726 4.2661 49.0071 4.90057C49.6416 5.53504 49.9588 6.4607 49.9588 7.67756V15H47.3807V8.07528C47.3807 7.3982 47.2008 6.90341 46.8409 6.59091C46.4811 6.27367 46.0407 6.11506 45.5199 6.11506C44.8996 6.11506 44.4143 6.30919 44.0639 6.69744C43.7183 7.08097 43.5455 7.58049 43.5455 8.19602V15H41.0241V7.96875C41.0241 7.4053 40.8537 6.95549 40.5128 6.61932C40.1766 6.28314 39.7363 6.11506 39.1918 6.11506C38.8224 6.11506 38.4863 6.20975 38.1832 6.39915C37.8802 6.58381 37.6387 6.84659 37.4588 7.1875C37.2789 7.52367 37.1889 7.91667 37.1889 8.36648V15H34.6179ZM57.3256 15.2131C56.2603 15.2131 55.337 14.9787 54.5558 14.5099C53.7745 14.0412 53.1684 13.3854 52.7376 12.5426C52.3114 11.6998 52.0984 10.715 52.0984 9.58807C52.0984 8.46117 52.3114 7.47396 52.7376 6.62642C53.1684 5.77888 53.7745 5.12074 54.5558 4.65199C55.337 4.18324 56.2603 3.94886 57.3256 3.94886C58.391 3.94886 59.3143 4.18324 60.0955 4.65199C60.8768 5.12074 61.4805 5.77888 61.9066 6.62642C62.3375 7.47396 62.5529 8.46117 62.5529 9.58807C62.5529 10.715 62.3375 11.6998 61.9066 12.5426C61.4805 13.3854 60.8768 14.0412 60.0955 14.5099C59.3143 14.9787 58.391 15.2131 57.3256 15.2131ZM57.3398 13.1534C57.9175 13.1534 58.4004 12.9948 58.7887 12.6776C59.177 12.3556 59.4658 11.9247 59.6552 11.3849C59.8493 10.8452 59.9464 10.2438 59.9464 9.58097C59.9464 8.91335 59.8493 8.30966 59.6552 7.76989C59.4658 7.22538 59.177 6.79214 58.7887 6.47017C58.4004 6.1482 57.9175 5.98722 57.3398 5.98722C56.748 5.98722 56.2556 6.1482 55.8626 6.47017C55.4743 6.79214 55.1831 7.22538 54.989 7.76989C54.7996 8.30966 54.7049 8.91335 54.7049 9.58097C54.7049 10.2438 54.7996 10.8452 54.989 11.3849C55.1831 11.9247 55.4743 12.3556 55.8626 12.6776C56.2556 12.9948 56.748 13.1534 57.3398 13.1534ZM67.3061 8.60795V15H64.7351V4.09091H67.1925V5.9446H67.3203C67.5713 5.33381 67.9714 4.84848 68.5206 4.48864C69.0746 4.12879 69.7588 3.94886 70.5732 3.94886C71.326 3.94886 71.9818 4.10985 72.5405 4.43182C73.1039 4.75379 73.5395 5.22017 73.8473 5.83097C74.1598 6.44176 74.3137 7.18276 74.3089 8.05398V15H71.7379V8.4517C71.7379 7.72254 71.5485 7.15199 71.1697 6.74006C70.7957 6.32812 70.2772 6.12216 69.6143 6.12216C69.1645 6.12216 68.7644 6.22159 68.4141 6.42045C68.0684 6.61458 67.7962 6.89631 67.5973 7.26562C67.4032 7.63494 67.3061 8.08239 67.3061 8.60795ZM78.13 19.0909C77.7796 19.0909 77.4553 19.0625 77.157 19.0057C76.8634 18.9536 76.629 18.892 76.4538 18.821L77.0504 16.8182C77.4245 16.9271 77.7583 16.9792 78.0518 16.9744C78.3454 16.9697 78.6035 16.8774 78.826 16.6974C79.0533 16.5223 79.245 16.2287 79.4013 15.8168L79.6214 15.2273L75.6655 4.09091H78.3928L80.907 12.3295H81.0206L83.5419 4.09091H86.2763L81.9084 16.321C81.7048 16.8987 81.4349 17.3935 81.0987 17.8054C80.7625 18.2221 80.3506 18.5393 79.8629 18.7571C79.38 18.9796 78.8023 19.0909 78.13 19.0909ZM88.169 15V0.454545H90.804V6.61222H97.544V0.454545H100.186V15H97.544V8.82102H90.804V15H88.169ZM103.052 15V0.454545H108.506C109.624 0.454545 110.561 0.648674 111.319 1.03693C112.081 1.42519 112.656 1.9697 113.045 2.67045C113.438 3.36648 113.634 4.1785 113.634 5.10653C113.634 6.0393 113.435 6.84896 113.038 7.53551C112.645 8.21733 112.065 8.74526 111.298 9.11932C110.531 9.48864 109.588 9.6733 108.471 9.6733H104.586V7.4858H108.116C108.769 7.4858 109.304 7.39583 109.721 7.21591C110.138 7.03125 110.445 6.76373 110.644 6.41335C110.848 6.05824 110.95 5.62263 110.95 5.10653C110.95 4.59044 110.848 4.15009 110.644 3.78551C110.441 3.41619 110.13 3.13684 109.714 2.94744C109.297 2.75331 108.76 2.65625 108.102 2.65625H105.687V15H103.052ZM110.566 8.40909L114.167 15H111.227L107.69 8.40909H110.566Z" fill="black"/>
</svg>
